<?xml version="1.0" encoding="utf-8"?>
<svg id="svg2" viewBox="86.054 260.215 359.648 240.748" style="" xmlns="http://www.w3.org/2000/svg">
  <desc>Source: openclipart.org/detail/209545</desc>
  <defs>
    <path id="path-0" d="M 123.448 533.689 C 140.869 520.366 145.168 516.17 149.06 514.224 C 153.764 510.544 162.646 512.176 167.5 512.176 C 182.184 512.176 194.819 512.176 207.454 512.176 C 226.026 512.176 241.582 520.371 257.653 520.371 C 274.488 525.641 288.153 527.465 300.68 531.64 C 315.789 536.301 327.22 541.852 339.61 545.983 C 352.028 549.781 361.315 551.201 369.32 555.203 L 371.369 555.203 C 374.339 558.174 379.791 557.705 381.613 561.35" style="fill: none;"/>
    <path id="path-1" d="M 110.13 478.368 C 127.641 490.757 142.474 500.848 156.231 509.102 C 179.251 520.87 197.053 530.025 214.625 538.812 C 235.216 550.489 268.901 549.056 289.411 549.056 C 323.595 549.056 346.868 548.738 374.442 540.861 C 401.695 533.324 410.262 525.565 419.518 507.053 C 428.853 490.433 441.882 479.916 446.154 467.099 C 450.308 457.767 450.252 453.778 450.252 446.61 C 450.252 439.781 451.897 430.435 449.228 425.096 L 449.228 424.072 C 448.077 421.77 448.203 420.453 448.203 417.925" style="fill: none;"/>
  </defs>
  <g transform="matrix(1.621731, 0, 0, 1.621731, 94.96785, 293.42514)">
    <path d="m 230.63401,145.3408 c -10.82934,11.41488 -26.64359,32.5141 -41.94218,36.20812 -15.2986,3.69402 -41.99949,-2.06333 -57.24078,-5.22488 -15.24128,-3.16156 -28.19064,-13.0123 -24.06518,-19.06917 4.12546,-6.05688 18.04889,-12.71277 18.04889,-12.71277 0,0 -36.441577,-25.05949 -41.655698,-31.34932 -5.214121,-6.28983 -4.125464,-12.08045 2.922202,-12.37997 7.047667,-0.29953 48.015776,14.80937 58.329436,15.47497 10.31365,0.66559 58.21483,6.48952 66.92414,6.12344 8.70931,-0.36609 15.24128,-1.56415 15.24128,-1.56415 l 3.1514,-7.65429 c 0,0 -9.22499,-1.23132 -6.24549,-6.52278 2.97949,-5.29145 8.19364,-9.151879 11.40232,-8.186772 3.20868,0.965107 11.00121,7.421332 8.5374,9.917302 -2.46381,2.49597 -5.32872,6.4895 -5.32872,6.4895 l 4.92764,8.1535 c 0,0 37.30107,-11.11537 65.54899,-9.75091 28.24793,1.36445 65.06837,-3.65685 69.88142,-4.28916 4.81305,-0.63231 15.41317,-1.09823 18.16348,3.59419 2.75032,4.69241 -24.75277,20.23395 -24.75277,20.23395 l -13.63693,8.85235 c 0,0 18.04888,3.29469 21.14298,6.55608 3.0941,3.26139 3.0941,7.621 -2.5211,12.74605 -5.61521,5.12505 -61.59543,17.9044 -72.19557,20.99938 -10.60014,3.09499 -22.17435,8.02036 -32.31611,1.83037 -10.14175,-6.19 -27.78954,-31.38258 -31.57122,-35.17645 -3.78169,-3.79388 -10.74983,-3.29858 -10.74983,-3.29858 z" paint-order="fill markers stroke" transform="translate(19.314588,-16.668755) matrix(0.64692417,0,0,0.64692417,-69.5722,-45.43172)" style="fill: rgb(255, 255, 255);"/>
    <path d="m 235.06266,255.68875 c -1.448,-1.44801 -3.03,-4.21574 -3.5156,-6.15051 -0.4856,-1.93477 -0.5953,-24.45003 -0.2438,-50.03392 0.3515,-25.58388 0.2059,-46.51615 -0.3237,-46.51615 -0.5296,0 -3.2762,2.85 -6.1035,6.33333 -11.081,13.65191 -17.356,19.38952 -25.8293,23.61765 -10.9873,5.48258 -16.3555,6.27597 -31.6917,4.68381 -38.4413,-3.99087 -64.2801,-15.02106 -64.3148,-27.45498 -0.014,-5.05691 4.1955,-10.71258 9.6213,-12.92654 l 4.0233,-1.64169 -14.1072,-11.04684 C 80.993275,117.65093 73.612775,106.59462 79.790675,100.41674 c 4.9557,-4.955741 21.717085,-2.714951 48.571385,6.49341 15.4339,5.2923 24.9812,7.07643 46.6667,8.72075 9.1666,0.69508 20.8666,1.67378 26,2.1749 9.0934,0.88771 9.2759,0.84607 7.1,-1.61992 -2.1491,-2.43546 -3.0783,-6.52043 -2.6407,-11.60973 0.3198,-3.71976 2.8714,-1.23024 2.8945,2.82404 0.025,4.38225 0.8121,5.56821 6.1854,9.31889 4.8247,3.36776 6.9145,3.86567 4.0025,0.9536 -2.8997,-2.89964 -6.7685,-15.3244 -5.2458,-16.84705 0.7863,-0.78629 1.8864,0.87988 2.9403,4.45308 1.8014,6.10745 6.1053,11.70946 8.9962,11.70946 2.6385,0 2.1536,-1.31261 -1.5657,-4.23821 -4.536,-3.56803 -4.2538,-8.08357 0.7694,-12.31032 5.3187,-4.475351 9.6504,-5.486711 14.6429,-3.418751 7.6792,3.180841 10.0176,9.870661 5.1513,14.737041 -3.492,3.49199 -2.5086,7.34151 1.3482,5.27742 3.8472,-2.05894 6.7127,-6.71182 7.6246,-12.38051 1.1273,-7.007081 3.6486,-6.403371 2.7843,0.66666 -0.381,3.11667 -1.1608,6.86667 -1.7328,8.33334 -1.0126,2.5962 -0.9669,2.60246 1.7308,0.23694 1.524,-1.33635 3.4986,-4.18635 4.3879,-6.33334 0.8893,-2.14698 2.1441,-3.9036 2.7885,-3.9036 1.6039,0 1.4764,4.93895 -0.2087,8.08765 -0.7591,1.41846 -1.1787,2.57901 -0.9324,2.57901 0.2462,0 5.8173,-1.18701 12.3802,-2.63781 9.6854,-2.14107 17.0186,-2.64324 38.9412,-2.66666 16.7068,-0.0179 31.9641,-0.77137 40,-1.97548 20.2228,-3.03021 38.9195,-3.19408 42.9382,-0.37634 4.6872,3.28646 6.7079,7.57039 5.1492,10.91652 -1.8489,3.96911 -11.3644,10.80516 -23.3357,16.76467 -5.7349,2.85495 -9.3473,5.21728 -8.0276,5.24963 3.5344,0.0866 10.5975,3.92979 13.2375,7.20276 3.847,4.76937 2.8803,8.45173 -3.9703,15.12373 -8.8847,8.65306 -19.1512,12.95616 -40.7799,17.09263 -10.1456,1.94034 -21.8456,4.73911 -26,6.2195 -4.5985,1.63865 -12.5467,2.96462 -20.3173,3.38946 -10.8513,0.59328 -13.6482,0.30093 -18.6666,-1.95123 -7.5582,-3.39191 -17.5345,-12.2711 -24.655,-21.9437 l -5.5958,-7.60137 -0.1837,36.48597 c -0.1696,33.70302 0.022,37.00668 2.5073,43.31287 3.45,8.7527 3.441,14.75357 -0.028,18.47677 -3.3743,3.62196 -7.1425,3.72357 -10.5808,0.28533 z m 51.7819,-78.66464 c -1.612,-2.18023 -6.2799,-6.30454 -10.3733,-9.16513 -8.7898,-6.14261 -26.7268,-15.36425 -27.7992,-14.29188 -1.4885,1.48854 10.1153,13.5712 19.6119,20.42107 8.2141,5.92489 10.6098,7 15.598,7 h 5.8933 z m 18.1674,1.20564 c 8.6216,-2.66294 8.8517,-2.84572 6.6485,-5.28028 -3.928,-4.34032 -24.8669,-14.19317 -34.8358,-16.39203 -9.1642,-2.02139 -20.9927,-8.18012 -28.124,-14.64335 -3.6633,-3.32016 -4.2146,-2.85465 -3.3496,2.82859 0.6331,4.16035 1.5828,4.85696 16.0981,11.80833 12.8094,6.13437 16.7951,8.80596 23.5025,15.75324 4.4424,4.60135 8.7639,8.4376 9.6033,8.525 0.8395,0.0874 5.5451,-1.08237 10.457,-2.5995 z m -121.9832,-6.8989 c 3.3,-3.77883 5.0265,-6.50001 3.8367,-6.04708 -1.1898,0.45293 -6.5898,2.13813 -12,3.74489 -19.2445,5.71535 -21.8937,9.33466 -6.758,9.23281 l 8.9213,-0.06 z m 11.4537,3.04126 c 5.0575,-2.5349 11.6999,-7.80808 18.5463,-14.72324 10.334,-10.43786 10.5004,-10.70494 5.3334,-8.56403 -13.1424,5.44545 -21.3371,10.5674 -29.6841,18.55359 -8.2162,7.86109 -8.688,8.59817 -5.529,8.63873 1.8996,0.0244 6.9996,-1.73288 11.3334,-3.90505 z m -38.9129,-0.51494 c 3.4865,-2.64585 30.601,-11.53567 35.1844,-11.53567 0.811,0 4.0545,-1.72544 7.2079,-3.83431 5.9877,-4.00432 22.479,-11.55271 27.0516,-12.38208 3.0907,-0.56059 4.231,-4.4472 2.069,-7.05224 -1.2259,-1.47708 -3.8248,-0.49055 -14.2271,5.40051 -20.7476,11.74985 -30.1695,15.38573 -41.9651,16.19422 -9.3321,0.63963 -11.2365,1.26913 -18.7897,6.21091 -4.6229,3.02452 -8.2906,6.091 -8.1505,6.81439 0.2091,1.07996 2.3091,2.04114 6.9528,3.18236 0.2975,0.0731 2.3975,-1.27604 4.6667,-2.99809 z m 170.7926,-1.36753 6.6666,-1.78042 -5.3333,-1.46226 c -2.9333,-0.80424 -8.5961,-1.88373 -12.5838,-2.39886 l -7.2505,-0.9366 4.5838,4.16592 c 5.2781,4.79686 5.1022,4.76638 13.9172,2.41222 z m -180.8394,-5.8348 9.6021,-6.33334 -5.556,-1.63257 c -5.1307,-1.50759 -6.3011,-1.32236 -15.2897,2.4196 -5.3536,2.22869 -10.4485,4.91334 -11.322,5.9659 -0.8736,1.05256 -1.3648,1.92277 -1.0917,1.93381 0.2731,0.011 2.8966,0.88471 5.8299,1.94148 2.9334,1.05677 5.984,1.94774 6.7793,1.97993 0.7952,0.0322 5.7669,-2.79148 11.0481,-6.27481 z m 212.0949,-0.49141 c 10.1135,-3.4658 10.6926,-4.61511 3.1856,-6.32274 -13.728,-3.12272 -33.9423,-4.43232 -45.0495,-2.91855 -5.8987,0.80391 -13.125,1.59764 -16.0583,1.76385 l -5.3333,0.30218 4,2.17841 c 2.2,1.19812 8.8,2.61048 14.6666,3.13858 5.8667,0.5281 13.9667,2.0191 18,3.31333 8.3839,2.69025 15.6535,2.29243 26.5889,-1.45506 z m -236.8011,-2.56008 c 2.5338,-1.49498 7.8181,-3.85259 11.7429,-5.23913 5.7409,-2.02814 6.6146,-2.70114 4.4693,-3.44252 -1.4667,-0.50684 -5.2084,-2.09875 -8.315,-3.53757 l -5.6483,-2.61604 -5.5638,3.11004 c -8.0003,4.47191 -9.1262,6.86646 -5.1959,11.05011 1.7533,1.8663 3.3489,3.39326 3.5458,3.39326 0.197,0 2.4312,-1.22316 4.965,-2.71815 z m 255.8579,-7.95615 c 4.1544,-3.82365 4.2405,-4.09547 1.8742,-5.92099 -2.873,-2.21645 -13.6106,-4.73804 -20.1759,-4.73804 -4.2001,0 -22.6637,5.89232 -25.0796,8.00372 -0.588,0.51383 4.812,1.28693 12,1.71799 7.1879,0.43107 15.769,1.66071 19.069,2.73253 8.0734,2.62221 7.4071,2.71935 12.3123,-1.79521 z m -203.5573,-5.35742 c 8.3977,-1.44894 25.9116,-7.75485 25.9116,-9.32952 0,-1.48344 -13.9436,-3.90135 -31.1123,-5.39508 -14.8029,-1.28788 -16.1324,-1.20176 -21.4905,1.39207 -5.626,2.72348 -11.6251,7.96519 -9.2705,8.10002 0.6636,0.038 6.6066,1.499 13.2066,3.24665 14.3489,3.79954 12.9507,3.67752 22.7551,1.98586 z m 142.3315,-2.66905 c 3.531,-0.91267 5.931,-2.12014 5.3334,-2.68327 -3.6668,-3.45511 -43.0866,-10.24477 -43.0866,-7.42121 0,2.01857 5.3743,11.27682 6.9643,11.99735 2.7011,1.22401 23.7327,-0.069 30.7889,-1.89287 z m -38.0362,-4.63256 c -2.9045,-5.97821 -2.9395,-5.99943 -9.6494,-5.84225 -3.7038,0.0868 -8.5343,0.56565 -10.7343,1.06419 l -4,0.90643 6.6667,3.11125 c 9.2338,4.30931 15.5839,6.63282 18.316,6.70185 2.107,0.0532 2.0529,-0.48293 -0.599,-5.94147 z m 58.0455,-1.45867 c 3.4306,-1.16893 6.2375,-2.60482 6.2375,-3.19087 0,-2.70212 -33.3936,-6.41891 -42.1688,-4.6935 l -5.1645,1.01545 8,1.70335 c 4.4,0.93685 11,2.89918 14.6666,4.36074 8.3777,3.33939 10.6938,3.44054 18.4292,0.80483 z m -195.7626,-4.02256 c 3.5984,-3.18078 4.4659,-4.50127 2.6667,-4.05916 -1.4667,0.36041 -6.1072,1.04643 -10.3123,1.52449 -9.211,1.04716 -10.7304,2.73815 -4.7817,5.32187 6.0598,2.63202 6.3773,2.56082 12.4273,-2.7872 z m 64.5556,0.29882 c -0.5549,-0.51515 -17.7316,-5.43295 -26.5556,-7.60303 -5.1228,-1.25988 -13.3333,-0.27432 -13.3333,1.6005 0,0.65172 3.45,1.23551 7.6667,1.29731 4.2166,0.0618 12.4666,1.17612 18.3333,2.47626 11.3204,2.50877 14.7901,3.06561 13.8889,2.22896 z m -75.2222,-4.55388 c 3.1363,-1.20186 10.6383,-2.1802 18.2115,-2.37496 7.083,-0.18216 14.0935,-0.98165 15.579,-1.77664 4.4572,-2.38542 12.6323,-1.66672 30.1932,2.65438 17.4545,4.29493 27.1143,4.79772 13.381,0.69648 -11.5793,-3.45795 -30.2199,-7.38343 -44.3656,-9.34283 -12.807,-1.77397 -12.0156,-1.83895 -40.3325,3.31187 -4.7666,0.86706 -9.4534,1.99398 -10.415,2.50428 -2.3785,1.26221 7.71,8.17732 10.415,7.13894 1.1,-0.42227 4.4,-1.68745 7.3334,-2.81152 z m 109.2704,-2.30893 c 1.6604,-11.07238 -4.0672,-20.37976 -7.3034,-11.86798 -2.1526,5.66182 -1.5226,11.50473 1.5988,14.82727 1.5945,1.69726 3.3263,3.08593 3.8486,3.08593 0.5222,0 1.3574,-2.72035 1.856,-6.04522 z m 38.7296,3.39161 c 9.5334,-0.63774 20.9334,-1.85639 25.3334,-2.7081 9.3402,-1.808 24.3681,-0.9812 37.834,2.08156 8.8768,2.01897 9.9099,2.01056 15.5049,-0.12618 3.2969,-1.25911 5.9944,-2.78453 5.9944,-3.38983 0,-2.20415 -14.3227,-5.41473 -27.3333,-6.12706 -8.9815,-0.49173 -17.6852,-0.0434 -26.6667,1.37355 -7.3333,1.15696 -23.3736,3.04402 -35.645,4.19347 -22.3219,2.09087 -26.355,2.79634 -26.355,4.60996 0,2.30779 2.3931,2.94398 8,2.12672 3.3,-0.48102 13.8,-1.39636 23.3333,-2.03409 z m -55.5355,-2.52658 c 0.9889,-0.62664 1.5824,-2.26745 1.319,-3.64625 -0.4242,-2.21998 -2.2322,-2.60288 -15.7979,-3.34558 -8.4254,-0.46127 -15.4953,-0.68493 -15.7108,-0.49701 -0.2156,0.18792 4.9065,1.65087 11.3824,3.251 6.4759,1.60013 12.6523,3.4646 13.7253,4.14326 2.399,1.51738 2.8244,1.5253 5.082,0.0946 z m 36.7688,-2.99457 c 5.6772,-0.92845 9.1769,-2.41318 12.4388,-5.27713 l 4.5389,-3.9852 -3.7722,0.79204 c -11.2258,2.35708 -25.7721,7.78221 -25.7721,9.61184 0,1.35125 0.7451,1.69222 2.3333,1.06778 1.2834,-0.50457 5.8883,-1.49877 10.2333,-2.20933 z m -141.9,-3.10512 4.6667,-1.74368 -3.4808,-1.38456 c -4.9812,-1.98136 -19.306605,-4.66275 -21.321905,-3.99099 -2.32908,0.77637 9.433605,8.95794 12.802705,8.90489 1.4666,-0.0231 4.7666,-0.82664 7.3333,-1.78566 z m 196.0001,-3.99718 c 17.8077,-2.33321 33.1171,-1.28743 46.3342,3.16509 10.4374,3.51608 11.45,3.4583 20.3324,-1.16013 7.2031,-3.74525 7.2672,-3.82984 3.6051,-4.76376 -3.8753,-0.98831 -14.51332,-0.3945 -19.14742,1.10472 -1.4667,0.47449 -2.16507,-0.15482 0.76823,-1.61435 5.8104,-2.89106 15.24379,-3.55713 20.77459,-1.45432 2.3674,0.90009 4.3458,0.88484 6.0868,-0.0469 3.0182,-1.6153 3.3929,-4.68915 0.6976,-5.72343 -1.765,-0.67727 -28.4949,2.76918 -44.6745,5.76014 -3.9967,0.73884 -18.3939,1.34335 -31.9936,1.34335 -23.383,0 -25.2175,0.18749 -33.7552,3.4499 -4.9655,1.89744 -9.0282,3.88575 -9.0282,4.41846 0,0.5327 5.55,0.19494 12.3333,-0.7506 6.7833,-0.94553 19.2333,-2.6232 27.6667,-3.72816 z m -177.0001,-0.2454 c 2.75,-0.45455 4.9925,-1.19795 4.9834,-1.652 -0.038,-1.90534 -46.621485,-16.15511 -52.820085,-16.15769 -1.5602,-6.5e-4 -3.6122,0.93319 -4.56,2.0752 -1.4512,1.74854 -1.1644,2.63526 1.8165,5.61613 2.9925,2.9925 5.1404,3.68078 13.89328,4.45194 5.694505,0.50169 13.653605,2.12233 17.686905,3.60141 8.0236,2.94236 11.4434,3.31404 19,2.06501 z m 104.2475,-15.00532 c 0.4061,-0.65695 -0.45272,-2.40336 -1.6144,-4.09991 -2.06252,-3.01216 -3.58131,-1.69951 -5.9929,-0.0421 -2.09928,1.44276 -3.6401,3.4198 -3.6401,4.09991 0,1.58736 10.2687,1.62581 11.2474,0.0421 z" transform="translate(19.314588,-16.668755) matrix(0.64692417,0,0,0.64692417,-69.5722,-45.43172)" style="fill: rgb(255, 255, 255);"/>
  </g>
</svg>